<svg width="580" height="400" xmlns="http://www.w3.org/2000/svg">
 <!-- Created with Method Draw - http://github.com/duopixel/Method-Draw/ -->
 <g>
  <title>background</title>
  <rect fill="#fff" id="canvas_background" height="402" width="582" y="-1" x="-1"/>
  <g display="none" overflow="visible" y="0" x="0" height="100%" width="100%" id="canvasGrid">
   <rect fill="url(#gridpattern)" stroke-width="0" y="0" x="0" height="100%" width="100%"/>
  </g>
 </g>
 <g>
  <title>Layer 1</title>
  <rect id="svg_1" height="239" width="180" y="-2.5625" x="-1.5" stroke-width="1.5" stroke="#000" fill="#84D3DB"/>
  <rect id="svg_2" height="171" width="235" y="229.4375" x="-15.5" stroke-width="1.5" stroke="#000" fill="#EEFF9F"/>
  <rect id="svg_3" height="281" width="238" y="-24.5625" x="162.5" stroke-width="1.5" stroke="#000" fill="#FFAFCC"/>
  <rect id="svg_4" height="200" width="221" y="232.4375" x="174.5" stroke-width="1.5" stroke="#000" fill="#2D6862"/>
  <rect id="svg_5" height="131" width="338" y="-8.5625" x="271.5" stroke-width="1.5" stroke="#000" fill="#C48157"/>
  <rect id="svg_6" height="389" width="253" y="70.4375" x="364.5" stroke-width="1.5" stroke="#000" fill="#D3BEE7"/>
  <path id="svg_9" d="m103.5,93.4375" opacity="0.5" stroke-width="1.5" stroke="#000" fill="#4D2425"/>
  <path id="svg_10" d="m108.5,200.4375" opacity="0.5" stroke-width="1.5" stroke="#000" fill="#4D2425"/>
  <path id="svg_18" d="m87.5,95.4375" opacity="0.5" fill-opacity="null" stroke-opacity="null" stroke-width="24" stroke="#000" fill="none"/>
  <path d="m83.5,70.4375c0,0 0,1 0,3c0,7 1.499382,17.962601 2,28c0.398506,7.990067 0,17 0,24c0,6 0,15 0,24c0,10 0,21 0,30c0,9 0,17 0,25c0,9 0,19 0,28c0,9 0.659843,17.027252 0,25c-0.501709,6.062042 -1.864059,12.003082 -2,15c-0.500511,11.034027 -1,12 -1,15c0,2 0,5 0,8c0,4 0,7 0,11c0,5 0,8 0,11c0,2 -2.486259,2.823761 -3,5c-0.229752,0.973236 0,3 0,5c0,1 0,2 0,3c0,1 -4,2 -8,4l-1,0l0,1" id="svg_19" fill-opacity="null" stroke-opacity="null" stroke-width="13" stroke="#000" fill="none"/>
  <path stroke-width="7" d="m81.5,79.4375c0,0 0,0 0,-1c0,-1 -1.05146,-2.298698 0,-4c2.351143,-3.80423 17.036827,-3.646347 26,-9c2.428253,-1.450378 7,-3 12,-3c1,0 1.693436,0.458805 3,1c2.771637,1.148048 5,1 5,2c0,1 0,2 1,2c1,0 2,1 3,1c1,0 3,2 4,3c1,1 2.386871,2.91761 5,4c0.923874,0.382683 1.852737,1.173096 3,2c1.813995,1.307449 3.186005,2.692551 5,4c2.29454,1.653809 3.458801,3.693436 4,5c0.765366,1.847755 1.513,4.593994 3,7c1.662506,2.689995 3.190277,5.881523 5,9c1.122345,1.933998 2,4 2,5c0,2 1,3 1,5c0,2 1.458801,3.693436 2,5c0.765366,1.847755 1,4 1,6c0,2 0,4 0,6c0,4 0,7 0,11c0,5 0,9 0,13c0,4 0.919006,7.10701 0,11c-1.027481,4.352509 -2.610641,7.159271 -4,10c-1.584106,3.238922 -4,5 -4,6c0,1 -1.458801,1.693436 -2,3c-0.38269,0.923874 -2.21167,2.714127 -5,5c-1.093674,0.896591 -0.61731,3.076126 -1,4c-0.541199,1.306564 -4.878555,3.493454 -8,4c-1.974182,0.320358 -2.076126,0.61731 -3,1c-1.306564,0.541199 -2.977341,2.095444 -7,3c-4.974792,1.118668 -7.292892,1.292892 -8,2c-0.707108,0.707108 -2,0 -3,0c-1,0 -4,0 -6,0c-1,0 -3,-1 -4,-1c-1,0 -2.026749,-0.770248 -3,-1c-2.176254,-0.513748 -3,-2 -4,-2c-1,0 -2.292892,0.707108 -3,0c-0.707108,-0.707108 -4,-1 -6,-1c-1,0 -1.292892,-0.292892 -2,-1c-0.707108,-0.707108 -1.076118,-0.61731 -2,-1c-1.306564,-0.541199 -3,-2 -4,-3c-1,-1 -3,-1 -4,-2l-1,0l0,-1" id="svg_20" fill-opacity="null" stroke-opacity="null" stroke="#000" fill="none"/>
  <path stroke-width="13" d="m236.5,59.693665c0,0 0.24437,1.014984 0,3c-0.503769,4.092216 -3,8 -4,12c-1,4 -2.497559,7.925797 -3,13c-0.39415,3.98053 0,8 0,12c0,5 0,10 0,14c0,4 0,9 0,14c0,6 0,11 0,16c0,5 0,11 0,16c0,6 0,12 0,17c0,4 -1,7 -1,9c0,3 0,7 0,11c0,4 0,8 0,14c0,5 0,10 0,16c0,4 0,8 0,11c0,2 0.493454,3.878571 1,7c0.320358,1.974182 -0.480545,5.038727 0,8c0.506546,3.121429 2.095444,6.977356 3,11c1.118668,4.974792 2.497559,9.925781 3,15c0.492691,4.975677 1.44841,9.805664 3,14c1.430496,3.867004 2.486252,5.823761 3,8c0.689255,2.919739 1.746399,7.161194 5,12c2.789948,4.149231 6,8 8,10c1,1 2,3 2,6c0,2 1.458801,2.693451 2,4c0.38269,0.923889 1.07843,0.789856 4,2c2.065857,0.855713 4.878571,2.493469 8,3c2.961273,0.48056 3.823761,0.486267 6,1c4.866241,1.148773 5.823761,0.486267 8,1c5.839508,1.37851 13,0 16,0c1,0 2.61731,-0.076111 3,-1c0.541199,-1.306549 2.418854,-0.418854 4,-2c1.581146,-1.581146 1,-3 1,-4c0,-1 0,-2 1,-3c2,-2 4.420441,-4.085815 5,-6c1.04483,-3.450836 5.493469,-5.878571 6,-9c0.48056,-2.961273 1.465515,-5.838074 3,-11c1.452942,-4.887634 0.511261,-10.029968 1,-14c0.503784,-4.092224 2,-6 2,-10c0,-3 0,-7 0,-12c0,-4 0,-8 0,-10c0,-3 -2.100586,-5.026489 -1,-9c0.377502,-1.362885 2,-4 2,-6c0,-3 0,-6 0,-8c0,-2 0.679626,-3.025818 1,-5c0.506531,-3.121429 1.095428,-4.977356 2,-9c1.118652,-4.974792 1,-9 1,-13c0,-4 1,-8 1,-13c0,-4 0,-8 0,-13c0,-4 -0.610931,-10.03746 0,-15c0.503784,-4.092209 1,-8 1,-11c0,-3 0,-6 0,-11c0,-5 -0.497559,-8.925797 -1,-14c-0.591217,-5.970795 0,-8 0,-12c0,-2 0,-5 0,-7c0,-3 0,-5 0,-7c0,-2 0.459503,-4.053497 0,-6c-0.513733,-2.176254 -1,-3 -1,-4c0,-1 0,-2 0,-3c0,-1 0,-2 0,-3c0,-1 -1,-2 -1,-3c0,-1 0,-2 -1,-2l0,-1" id="svg_21" fill-opacity="null" stroke-opacity="null" stroke="#000" fill="none"/>
  <path stroke-width="10" d="m379.5,90.4375c0,0 0,1 0,2c0,3 -0.407837,10.009247 0,19c0.500519,11.034012 1,23 1,37c0,13 0,24 0,33c0,7 0,13 0,19c0,4 0,9 0,13c0,3 0,7 0,11c0,4 -0.425323,9.015091 0,15c0.501251,7.053284 1,13 1,20c0,5 0,11 0,16c0,6 0,11 0,15c0,3 0,5 0,8c0,2 0,4 0,6c0,2 0,4 0,5c0,1 0,2 0,4c0,2 0,3 0,6c0,2 0,3 0,5c0,1 0,2 0,3c0,1 0,2 0,3c0,1 0,2 0,3c0,1 -0.765381,2.152252 0,4c0.541199,1.306549 1,3 1,4c0,2 0,4 0,6c0,1 0,2 0,3c0,1 0,2 0,3c0,1 0,2 -1,4l0,1l0,1" id="svg_22" fill-opacity="null" stroke-opacity="null" stroke="#000" fill="none"/>
  <path stroke-width="8" d="m377.5,95.4375c0,0 -0.707092,-0.292892 0,-1c0.707092,-0.707108 6.83551,-2.993996 16,-4c0.994019,-0.109116 1.012909,-0.839821 2,-1c3.121429,-0.506538 5,-2 6,-2c6,0 10,0 11,0c2,0 3.823761,0.486259 6,1c0.973236,0.229752 1.014984,0.75563 3,1c4.092224,0.503777 6.007507,1.877815 7,2c4.092224,0.503777 8.132996,0.569504 12,2c2.097168,0.775795 2,2 2,3c0,1 -1.156403,3.182877 7,10c4.47403,3.739395 5,6 5,9c0,4 -0.662506,9.310005 1,12c2.230499,3.609009 4.418854,5.418854 6,7c1.581146,1.581146 2,3 2,5c0,2 0.679626,4.025818 1,6c0.506531,3.121445 1,6 1,9c0,4 0,7 -1,11c-1,4 -0.199097,8.06456 -1,13c-1.013092,6.242889 -3,10 -3,15c0,2 0,4 0,5c0,1 0.38269,2.076126 0,3c-0.541199,1.306564 -1,2 -1,5c0,1 -0.812653,2.206802 -3,4c-2.78833,2.285873 -3,3 -3,5c0,1 -0.076111,1.61731 -1,2c-1.306549,0.541199 -2,1 -5,2c-3,1 -5.076111,0.61731 -6,1c-1.306549,0.541199 -2,1 -2,2c0,1 -1,1 -2,1c-1,0 -2,0 -3,0c-1,0 -3,0 -11,0c-7,0 -16,-1 -22,-1c-1,0 -1.693451,-0.458801 -3,-1c-0.923889,-0.38269 -2,0 -4,0c-3,0 -4,0 -5,0c-1,0 -1,1 -2,1c-3,0 -5,1 -6,1l-1,0l0,1" id="svg_23" fill-opacity="null" stroke-opacity="null" stroke="#000" fill="none"/>
 </g>
</svg>